<svg id="my-svg" width="100%" xmlns="http://www.w3.org/2000/svg" xmlns:xlink="http://www.w3.org/1999/xlink" style="max-width: 2121px; background-color: white;" viewBox="-50 -10 2121 1608" role="graphics-document document" aria-roledescription="sequence"><g><rect x="1871" y="1522" fill="#eaeaea" stroke="#666" width="150" height="65" name="J" rx="3" ry="3" class="actor actor-bottom"/><text x="1946" y="1554.5" dominant-baseline="central" alignment-baseline="central" class="actor actor-box" style="text-anchor: middle; font-size: 16px; font-weight: 400;"><tspan x="1946" dy="0">Jitsi Meet</tspan></text></g><g><rect x="1671" y="1522" fill="#eaeaea" stroke="#666" width="150" height="65" name="N" rx="3" ry="3" class="actor actor-bottom"/><text x="1746" y="1554.5" dominant-baseline="central" alignment-baseline="central" class="actor actor-box" style="text-anchor: middle; font-size: 16px; font-weight: 400;"><tspan x="1746" dy="0">Notifieur</tspan></text></g><g><rect x="1425" y="1522" fill="#eaeaea" stroke="#666" width="196" height="65" name="DB" rx="3" ry="3" class="actor actor-bottom"/><text x="1523" y="1554.5" dominant-baseline="central" alignment-baseline="central" class="actor actor-box" style="text-anchor: middle; font-size: 16px; font-weight: 400;"><tspan x="1523" dy="-16">Ports de persistance</tspan></text><text x="1523" y="1554.5" dominant-baseline="central" alignment-baseline="central" class="actor actor-box" style="text-anchor: middle; font-size: 16px; font-weight: 400;"><tspan x="1523" dy="0">RendezVousRepository</tspan></text><text x="1523" y="1554.5" dominant-baseline="central" alignment-baseline="central" class="actor actor-box" style="text-anchor: middle; font-size: 16px; font-weight: 400;"><tspan x="1523" dy="16">TeleconsultationRepository</tspan></text></g><g><rect x="982" y="1522" fill="#eaeaea" stroke="#666" width="192" height="65" name="API" rx="3" ry="3" class="actor actor-bottom"/><text x="1078" y="1554.5" dominant-baseline="central" alignment-baseline="central" class="actor actor-box" style="text-anchor: middle; font-size: 16px; font-weight: 400;"><tspan x="1078" dy="-16">API</tspan></text><text x="1078" y="1554.5" dominant-baseline="central" alignment-baseline="central" class="actor actor-box" style="text-anchor: middle; font-size: 16px; font-weight: 400;"><tspan x="1078" dy="0">TeleconsultationController</tspan></text><text x="1078" y="1554.5" dominant-baseline="central" alignment-baseline="central" class="actor actor-box" style="text-anchor: middle; font-size: 16px; font-weight: 400;"><tspan x="1078" dy="16">+ TeleconsultationService</tspan></text></g><g><rect x="525.5" y="1522" fill="#eaeaea" stroke="#666" width="173" height="65" name="APP" rx="3" ry="3" class="actor actor-bottom"/><text x="612" y="1554.5" dominant-baseline="central" alignment-baseline="central" class="actor actor-box" style="text-anchor: middle; font-size: 16px; font-weight: 400;"><tspan x="612" dy="-8">Web (médecin)</tspan></text><text x="612" y="1554.5" dominant-baseline="central" alignment-baseline="central" class="actor actor-box" style="text-anchor: middle; font-size: 16px; font-weight: 400;"><tspan x="612" dy="8">web ou mobile (patient)</tspan></text></g><g/><g/><g><line id="actor6" x1="1946" y1="65" x2="1946" y2="1522" class="actor-line 200" stroke-width="0.5px" stroke="#999" name="J" data-et="life-line" data-id="J"/><g id="root-6" data-et="participant" data-type="participant" data-id="J"><rect x="1871" y="0" fill="#eaeaea" stroke="#666" width="150" height="65" name="J" rx="3" ry="3" class="actor actor-top"/><text x="1946" y="32.5" dominant-baseline="central" alignment-baseline="central" class="actor actor-box" style="text-anchor: middle; font-size: 16px; font-weight: 400;"><tspan x="1946" dy="0">Jitsi Meet</tspan></text></g></g><g><line id="actor5" x1="1746" y1="65" x2="1746" y2="1522" class="actor-line 200" stroke-width="0.5px" stroke="#999" name="N" data-et="life-line" data-id="N"/><g id="root-5" data-et="participant" data-type="participant" data-id="N"><rect x="1671" y="0" fill="#eaeaea" stroke="#666" width="150" height="65" name="N" rx="3" ry="3" class="actor actor-top"/><text x="1746" y="32.5" dominant-baseline="central" alignment-baseline="central" class="actor actor-box" style="text-anchor: middle; font-size: 16px; font-weight: 400;"><tspan x="1746" dy="0">Notifieur</tspan></text></g></g><g><line id="actor4" x1="1523" y1="65" x2="1523" y2="1522" class="actor-line 200" stroke-width="0.5px" stroke="#999" name="DB" data-et="life-line" data-id="DB"/><g id="root-4" data-et="participant" data-type="participant" data-id="DB"><rect x="1425" y="0" fill="#eaeaea" stroke="#666" width="196" height="65" name="DB" rx="3" ry="3" class="actor actor-top"/><text x="1523" y="32.5" dominant-baseline="central" alignment-baseline="central" class="actor actor-box" style="text-anchor: middle; font-size: 16px; font-weight: 400;"><tspan x="1523" dy="-16">Ports de persistance</tspan></text><text x="1523" y="32.5" dominant-baseline="central" alignment-baseline="central" class="actor actor-box" style="text-anchor: middle; font-size: 16px; font-weight: 400;"><tspan x="1523" dy="0">RendezVousRepository</tspan></text><text x="1523" y="32.5" dominant-baseline="central" alignment-baseline="central" class="actor actor-box" style="text-anchor: middle; font-size: 16px; font-weight: 400;"><tspan x="1523" dy="16">TeleconsultationRepository</tspan></text></g></g><g><line id="actor3" x1="1078" y1="65" x2="1078" y2="1522" class="actor-line 200" stroke-width="0.5px" stroke="#999" name="API" data-et="life-line" data-id="API"/><g id="root-3" data-et="participant" data-type="participant" data-id="API"><rect x="982" y="0" fill="#eaeaea" stroke="#666" width="192" height="65" name="API" rx="3" ry="3" class="actor actor-top"/><text x="1078" y="32.5" dominant-baseline="central" alignment-baseline="central" class="actor actor-box" style="text-anchor: middle; font-size: 16px; font-weight: 400;"><tspan x="1078" dy="-16">API</tspan></text><text x="1078" y="32.5" dominant-baseline="central" alignment-baseline="central" class="actor actor-box" style="text-anchor: middle; font-size: 16px; font-weight: 400;"><tspan x="1078" dy="0">TeleconsultationController</tspan></text><text x="1078" y="32.5" dominant-baseline="central" alignment-baseline="central" class="actor actor-box" style="text-anchor: middle; font-size: 16px; font-weight: 400;"><tspan x="1078" dy="16">+ TeleconsultationService</tspan></text></g></g><g><line id="actor2" x1="612" y1="65" x2="612" y2="1522" class="actor-line 200" stroke-width="0.5px" stroke="#999" name="APP" data-et="life-line" data-id="APP"/><g id="root-2" data-et="participant" data-type="participant" data-id="APP"><rect x="525.5" y="0" fill="#eaeaea" stroke="#666" width="173" height="65" name="APP" rx="3" ry="3" class="actor actor-top"/><text x="612" y="32.5" dominant-baseline="central" alignment-baseline="central" class="actor actor-box" style="text-anchor: middle; font-size: 16px; font-weight: 400;"><tspan x="612" dy="-8">Web (médecin)</tspan></text><text x="612" y="32.5" dominant-baseline="central" alignment-baseline="central" class="actor actor-box" style="text-anchor: middle; font-size: 16px; font-weight: 400;"><tspan x="612" dy="8">web ou mobile (patient)</tspan></text></g></g><g><line id="actor1" x1="275" y1="80" x2="275" y2="1522" class="actor-line 200" stroke-width="0.5px" stroke="#999" name="P" data-et="life-line" data-id="P"/></g><g><line id="actor0" x1="75" y1="80" x2="75" y2="1522" class="actor-line 200" stroke-width="0.5px" stroke="#999" name="M" data-et="life-line" data-id="M"/></g><style>#my-svg{font-family:Helvetica;font-size:16px;fill:#0b3d2e;}@keyframes edge-animation-frame{from{stroke-dashoffset:0;}}@keyframes dash{to{stroke-dashoffset:0;}}#my-svg .edge-animation-slow{stroke-dasharray:9,5!important;stroke-dashoffset:900;animation:dash 50s linear infinite;stroke-linecap:round;}#my-svg .edge-animation-fast{stroke-dasharray:9,5!important;stroke-dashoffset:900;animation:dash 20s linear infinite;stroke-linecap:round;}#my-svg .error-icon{fill:hsl(338.5714285714, 38.8888888889%, 97.9411764706%);}#my-svg .error-text{fill:rgb(3.2083333333, 7.2916666666, 5.8333333333);stroke:rgb(3.2083333333, 7.2916666666, 5.8333333333);}#my-svg .edge-thickness-normal{stroke-width:1px;}#my-svg .edge-thickness-thick{stroke-width:3.5px;}#my-svg .edge-pattern-solid{stroke-dasharray:0;}#my-svg .edge-thickness-invisible{stroke-width:0;fill:none;}#my-svg .edge-pattern-dashed{stroke-dasharray:3;}#my-svg .edge-pattern-dotted{stroke-dasharray:2;}#my-svg .marker{fill:#0f7a5f;stroke:#0f7a5f;}#my-svg .marker.cross{stroke:#0f7a5f;}#my-svg svg{font-family:Helvetica;font-size:16px;}#my-svg p{margin:0;}#my-svg .actor{stroke:#0f7a5f;fill:#e6f4ef;stroke-width:1;}#my-svg rect.actor.outer-path[data-look="neo"]{filter:drop-shadow( 1px 2px 2px rgba(185,185,185,1));}#my-svg rect.note[data-look="neo"]{stroke:hsl(52.6829268293, 60%, 73.9215686275%);fill:#fff5ad;filter:drop-shadow( 1px 2px 2px rgba(185,185,185,1));}#my-svg text.actor&gt;tspan{fill:#0b3d2e;stroke:none;}#my-svg .actor-line{stroke:#0f7a5f;}#my-svg .innerArc{stroke-width:1.5;stroke-dasharray:none;}#my-svg .messageLine0{stroke-width:1.5;stroke-dasharray:none;stroke:#0b3d2e;}#my-svg .messageLine1{stroke-width:1.5;stroke-dasharray:2,2;stroke:#0b3d2e;}#my-svg [id$="-arrowhead"] path{fill:#0b3d2e;stroke:#0b3d2e;}#my-svg .sequenceNumber{fill:#f085a0;}#my-svg [id$="-sequencenumber"]{fill:#0b3d2e;}#my-svg [id$="-crosshead"] path{fill:#0b3d2e;stroke:#0b3d2e;}#my-svg .messageText{fill:#0b3d2e;stroke:none;}#my-svg .labelBox{stroke:#0f7a5f;fill:#e6f4ef;filter:none;}#my-svg .labelText,#my-svg .labelText&gt;tspan{fill:#0b3d2e;stroke:none;}#my-svg .loopText,#my-svg .loopText&gt;tspan{fill:#0b3d2e;stroke:none;}#my-svg .loopLine{stroke-width:2px;stroke-dasharray:2,2;stroke:#0f7a5f;fill:#0f7a5f;}#my-svg .note{stroke:hsl(52.6829268293, 60%, 73.9215686275%);fill:#fff5ad;}#my-svg .noteText,#my-svg .noteText&gt;tspan{fill:#333;stroke:none;font-weight:normal;}#my-svg .activation0{fill:hsl(38.5714285714, 38.8888888889%, 92.9411764706%);stroke:hsl(38.5714285714, 38.8888888889%, 82.9411764706%);}#my-svg .activation1{fill:hsl(38.5714285714, 38.8888888889%, 92.9411764706%);stroke:hsl(38.5714285714, 38.8888888889%, 82.9411764706%);}#my-svg .activation2{fill:hsl(38.5714285714, 38.8888888889%, 92.9411764706%);stroke:hsl(38.5714285714, 38.8888888889%, 82.9411764706%);}#my-svg .actorPopupMenu{position:absolute;}#my-svg .actorPopupMenuPanel{position:absolute;fill:#e6f4ef;box-shadow:0px 8px 16px 0px rgba(0,0,0,0.2);filter:drop-shadow(3px 5px 2px rgb(0 0 0 / 0.4));}#my-svg .actor-man circle,#my-svg line{fill:#e6f4ef;stroke-width:2px;}#my-svg g rect.rect{filter:drop-shadow( 1px 2px 2px rgba(185,185,185,1));stroke:#0f7a5f;}#my-svg .node .neo-node{stroke:#0f7a5f;}#my-svg [data-look="neo"].node rect,#my-svg [data-look="neo"].cluster rect,#my-svg [data-look="neo"].node polygon{stroke:url(#my-svg-gradient);filter:drop-shadow( 1px 2px 2px rgba(185,185,185,1));}#my-svg [data-look="neo"].node path{stroke:url(#my-svg-gradient);stroke-width:1px;}#my-svg [data-look="neo"].node .outer-path{filter:drop-shadow( 1px 2px 2px rgba(185,185,185,1));}#my-svg [data-look="neo"].node .neo-line path{stroke:#0f7a5f;filter:none;}#my-svg [data-look="neo"].node circle{stroke:url(#my-svg-gradient);filter:drop-shadow( 1px 2px 2px rgba(185,185,185,1));}#my-svg [data-look="neo"].node circle .state-start{fill:#000000;}#my-svg [data-look="neo"].icon-shape .icon{fill:url(#my-svg-gradient);filter:drop-shadow( 1px 2px 2px rgba(185,185,185,1));}#my-svg [data-look="neo"].icon-shape .icon-neo path{stroke:url(#my-svg-gradient);filter:drop-shadow( 1px 2px 2px rgba(185,185,185,1));}#my-svg :root{--mermaid-font-family:"trebuchet ms",verdana,arial,sans-serif;}</style><g/><defs><symbol id="my-svg-computer" width="24" height="24"><path transform="scale(.5)" d="M2 2v13h20v-13h-20zm18 11h-16v-9h16v9zm-10.228 6l.466-1h3.524l.467 1h-4.457zm14.228 3h-24l2-6h2.104l-1.33 4h18.45l-1.297-4h2.073l2 6zm-5-10h-14v-7h14v7z"/></symbol></defs><defs><symbol id="my-svg-database" fill-rule="evenodd" clip-rule="evenodd"><path transform="scale(.5)" d="M12.258.001l.256.004.255.005.253.008.251.01.249.012.247.015.246.016.242.019.241.02.239.023.236.024.233.027.231.028.229.031.225.032.223.034.22.036.217.038.214.04.211.041.208.043.205.045.201.046.198.048.194.05.191.051.187.053.183.054.18.056.175.057.172.059.168.06.163.061.16.063.155.064.15.066.074.033.073.033.071.034.07.034.069.035.068.035.067.035.066.035.064.036.064.036.062.036.06.036.06.037.058.037.058.037.055.038.055.038.053.038.052.038.051.039.05.039.048.039.047.039.045.04.044.04.043.04.041.04.04.041.039.041.037.041.036.041.034.041.033.042.032.042.03.042.029.042.027.042.026.043.024.043.023.043.021.043.02.043.018.044.017.043.015.044.013.044.012.044.011.045.009.044.007.045.006.045.004.045.002.045.001.045v17l-.001.045-.002.045-.004.045-.006.045-.007.045-.009.044-.011.045-.012.044-.013.044-.015.044-.017.043-.018.044-.02.043-.021.043-.023.043-.024.043-.026.043-.027.042-.029.042-.03.042-.032.042-.033.042-.034.041-.036.041-.037.041-.039.041-.04.041-.041.04-.043.04-.044.04-.045.04-.047.039-.048.039-.05.039-.051.039-.052.038-.053.038-.055.038-.055.038-.058.037-.058.037-.06.037-.06.036-.062.036-.064.036-.064.036-.066.035-.067.035-.068.035-.069.035-.07.034-.071.034-.073.033-.074.033-.15.066-.155.064-.16.063-.163.061-.168.06-.172.059-.175.057-.18.056-.183.054-.187.053-.191.051-.194.05-.198.048-.201.046-.205.045-.208.043-.211.041-.214.04-.217.038-.22.036-.223.034-.225.032-.229.031-.231.028-.233.027-.236.024-.239.023-.241.02-.242.019-.246.016-.247.015-.249.012-.251.01-.253.008-.255.005-.256.004-.258.001-.258-.001-.256-.004-.255-.005-.253-.008-.251-.01-.249-.012-.247-.015-.245-.016-.243-.019-.241-.02-.238-.023-.236-.024-.234-.027-.231-.028-.228-.031-.226-.032-.223-.034-.22-.036-.217-.038-.214-.04-.211-.041-.208-.043-.204-.045-.201-.046-.198-.048-.195-.05-.19-.051-.187-.053-.184-.054-.179-.056-.176-.057-.172-.059-.167-.06-.164-.061-.159-.063-.155-.064-.151-.066-.074-.033-.072-.033-.072-.034-.07-.034-.069-.035-.068-.035-.067-.035-.066-.035-.064-.036-.063-.036-.062-.036-.061-.036-.06-.037-.058-.037-.057-.037-.056-.038-.055-.038-.053-.038-.052-.038-.051-.039-.049-.039-.049-.039-.046-.039-.046-.04-.044-.04-.043-.04-.041-.04-.04-.041-.039-.041-.037-.041-.036-.041-.034-.041-.033-.042-.032-.042-.03-.042-.029-.042-.027-.042-.026-.043-.024-.043-.023-.043-.021-.043-.02-.043-.018-.044-.017-.043-.015-.044-.013-.044-.012-.044-.011-.045-.009-.044-.007-.045-.006-.045-.004-.045-.002-.045-.001-.045v-17l.001-.045.002-.045.004-.045.006-.045.007-.045.009-.044.011-.045.012-.044.013-.044.015-.044.017-.043.018-.044.02-.043.021-.043.023-.043.024-.043.026-.043.027-.042.029-.042.03-.042.032-.042.033-.042.034-.041.036-.041.037-.041.039-.041.04-.041.041-.04.043-.04.044-.04.046-.04.046-.039.049-.039.049-.039.051-.039.052-.038.053-.038.055-.038.056-.038.057-.037.058-.037.06-.037.061-.036.062-.036.063-.036.064-.036.066-.035.067-.035.068-.035.069-.035.07-.034.072-.034.072-.033.074-.033.151-.066.155-.064.159-.063.164-.061.167-.06.172-.059.176-.057.179-.056.184-.054.187-.053.19-.051.195-.05.198-.048.201-.046.204-.045.208-.043.211-.041.214-.04.217-.038.22-.036.223-.034.226-.032.228-.031.231-.028.234-.027.236-.024.238-.023.241-.02.243-.019.245-.016.247-.015.249-.012.251-.01.253-.008.255-.005.256-.004.258-.001.258.001zm-9.258 20.499v.01l.001.021.003.021.004.022.005.021.006.022.007.022.009.023.01.022.011.023.012.023.013.023.015.023.016.024.017.023.018.024.019.024.021.024.022.025.023.024.024.025.052.049.056.05.061.051.066.051.07.051.075.051.079.052.084.052.088.052.092.052.097.052.102.051.105.052.11.052.114.051.119.051.123.051.127.05.131.05.135.05.139.048.144.049.147.047.152.047.155.047.16.045.163.045.167.043.171.043.176.041.178.041.183.039.187.039.19.037.194.035.197.035.202.033.204.031.209.03.212.029.216.027.219.025.222.024.226.021.23.02.233.018.236.016.24.015.243.012.246.01.249.008.253.005.256.004.259.001.26-.001.257-.004.254-.005.25-.008.247-.011.244-.012.241-.014.237-.016.233-.018.231-.021.226-.021.224-.024.22-.026.216-.027.212-.028.21-.031.205-.031.202-.034.198-.034.194-.036.191-.037.187-.039.183-.04.179-.04.175-.042.172-.043.168-.044.163-.045.16-.046.155-.046.152-.047.148-.048.143-.049.139-.049.136-.05.131-.05.126-.05.123-.051.118-.052.114-.051.11-.052.106-.052.101-.052.096-.052.092-.052.088-.053.083-.051.079-.052.074-.052.07-.051.065-.051.06-.051.056-.05.051-.05.023-.024.023-.025.021-.024.02-.024.019-.024.018-.024.017-.024.015-.023.014-.024.013-.023.012-.023.01-.023.01-.022.008-.022.006-.022.006-.022.004-.022.004-.021.001-.021.001-.021v-4.127l-.077.055-.08.053-.083.054-.085.053-.087.052-.09.052-.093.051-.095.05-.097.05-.1.049-.102.049-.105.048-.106.047-.109.047-.111.046-.114.045-.115.045-.118.044-.12.043-.122.042-.124.042-.126.041-.128.04-.13.04-.132.038-.134.038-.135.037-.138.037-.139.035-.142.035-.143.034-.144.033-.147.032-.148.031-.15.03-.151.03-.153.029-.154.027-.156.027-.158.026-.159.025-.161.024-.162.023-.163.022-.165.021-.166.02-.167.019-.169.018-.169.017-.171.016-.173.015-.173.014-.175.013-.175.012-.177.011-.178.01-.179.008-.179.008-.181.006-.182.005-.182.004-.184.003-.184.002h-.37l-.184-.002-.184-.003-.182-.004-.182-.005-.181-.006-.179-.008-.179-.008-.178-.01-.176-.011-.176-.012-.175-.013-.173-.014-.172-.015-.171-.016-.17-.017-.169-.018-.167-.019-.166-.02-.165-.021-.163-.022-.162-.023-.161-.024-.159-.025-.157-.026-.156-.027-.155-.027-.153-.029-.151-.03-.15-.03-.148-.031-.146-.032-.145-.033-.143-.034-.141-.035-.14-.035-.137-.037-.136-.037-.134-.038-.132-.038-.13-.04-.128-.04-.126-.041-.124-.042-.122-.042-.12-.044-.117-.043-.116-.045-.113-.045-.112-.046-.109-.047-.106-.047-.105-.048-.102-.049-.1-.049-.097-.05-.095-.05-.093-.052-.09-.051-.087-.052-.085-.053-.083-.054-.08-.054-.077-.054v4.127zm0-5.654v.011l.001.021.003.021.004.021.005.022.006.022.007.022.009.022.01.022.011.023.012.023.013.023.015.024.016.023.017.024.018.024.019.024.021.024.022.024.023.025.024.024.052.05.056.05.061.05.066.051.07.051.075.052.079.051.084.052.088.052.092.052.097.052.102.052.105.052.11.051.114.051.119.052.123.05.127.051.131.05.135.049.139.049.144.048.147.048.152.047.155.046.16.045.163.045.167.044.171.042.176.042.178.04.183.04.187.038.19.037.194.036.197.034.202.033.204.032.209.03.212.028.216.027.219.025.222.024.226.022.23.02.233.018.236.016.24.014.243.012.246.01.249.008.253.006.256.003.259.001.26-.001.257-.003.254-.006.25-.008.247-.01.244-.012.241-.015.237-.016.233-.018.231-.02.226-.022.224-.024.22-.025.216-.027.212-.029.21-.03.205-.032.202-.033.198-.035.194-.036.191-.037.187-.039.183-.039.179-.041.175-.042.172-.043.168-.044.163-.045.16-.045.155-.047.152-.047.148-.048.143-.048.139-.05.136-.049.131-.05.126-.051.123-.051.118-.051.114-.052.11-.052.106-.052.101-.052.096-.052.092-.052.088-.052.083-.052.079-.052.074-.051.07-.052.065-.051.06-.05.056-.051.051-.049.023-.025.023-.024.021-.025.02-.024.019-.024.018-.024.017-.024.015-.023.014-.023.013-.024.012-.022.01-.023.01-.023.008-.022.006-.022.006-.022.004-.021.004-.022.001-.021.001-.021v-4.139l-.077.054-.08.054-.083.054-.085.052-.087.053-.09.051-.093.051-.095.051-.097.05-.1.049-.102.049-.105.048-.106.047-.109.047-.111.046-.114.045-.115.044-.118.044-.12.044-.122.042-.124.042-.126.041-.128.04-.13.039-.132.039-.134.038-.135.037-.138.036-.139.036-.142.035-.143.033-.144.033-.147.033-.148.031-.15.03-.151.03-.153.028-.154.028-.156.027-.158.026-.159.025-.161.024-.162.023-.163.022-.165.021-.166.02-.167.019-.169.018-.169.017-.171.016-.173.015-.173.014-.175.013-.175.012-.177.011-.178.009-.179.009-.179.007-.181.007-.182.005-.182.004-.184.003-.184.002h-.37l-.184-.002-.184-.003-.182-.004-.182-.005-.181-.007-.179-.007-.179-.009-.178-.009-.176-.011-.176-.012-.175-.013-.173-.014-.172-.015-.171-.016-.17-.017-.169-.018-.167-.019-.166-.02-.165-.021-.163-.022-.162-.023-.161-.024-.159-.025-.157-.026-.156-.027-.155-.028-.153-.028-.151-.03-.15-.03-.148-.031-.146-.033-.145-.033-.143-.033-.141-.035-.14-.036-.137-.036-.136-.037-.134-.038-.132-.039-.13-.039-.128-.04-.126-.041-.124-.042-.122-.043-.12-.043-.117-.044-.116-.044-.113-.046-.112-.046-.109-.046-.106-.047-.105-.048-.102-.049-.1-.049-.097-.05-.095-.051-.093-.051-.09-.051-.087-.053-.085-.052-.083-.054-.08-.054-.077-.054v4.139zm0-5.666v.011l.001.02.003.022.004.021.005.022.006.021.007.022.009.023.01.022.011.023.012.023.013.023.015.023.016.024.017.024.018.023.019.024.021.025.022.024.023.024.024.025.052.05.056.05.061.05.066.051.07.051.075.052.079.051.084.052.088.052.092.052.097.052.102.052.105.051.11.052.114.051.119.051.123.051.127.05.131.05.135.05.139.049.144.048.147.048.152.047.155.046.16.045.163.045.167.043.171.043.176.042.178.04.183.04.187.038.19.037.194.036.197.034.202.033.204.032.209.03.212.028.216.027.219.025.222.024.226.021.23.02.233.018.236.017.24.014.243.012.246.01.249.008.253.006.256.003.259.001.26-.001.257-.003.254-.006.25-.008.247-.01.244-.013.241-.014.237-.016.233-.018.231-.02.226-.022.224-.024.22-.025.216-.027.212-.029.21-.03.205-.032.202-.033.198-.035.194-.036.191-.037.187-.039.183-.039.179-.041.175-.042.172-.043.168-.044.163-.045.16-.045.155-.047.152-.047.148-.048.143-.049.139-.049.136-.049.131-.051.126-.05.123-.051.118-.052.114-.051.11-.052.106-.052.101-.052.096-.052.092-.052.088-.052.083-.052.079-.052.074-.052.07-.051.065-.051.06-.051.056-.05.051-.049.023-.025.023-.025.021-.024.02-.024.019-.024.018-.024.017-.024.015-.023.014-.024.013-.023.012-.023.01-.022.01-.023.008-.022.006-.022.006-.022.004-.022.004-.021.001-.021.001-.021v-4.153l-.077.054-.08.054-.083.053-.085.053-.087.053-.09.051-.093.051-.095.051-.097.05-.1.049-.102.048-.105.048-.106.048-.109.046-.111.046-.114.046-.115.044-.118.044-.12.043-.122.043-.124.042-.126.041-.128.04-.13.039-.132.039-.134.038-.135.037-.138.036-.139.036-.142.034-.143.034-.144.033-.147.032-.148.032-.15.03-.151.03-.153.028-.154.028-.156.027-.158.026-.159.024-.161.024-.162.023-.163.023-.165.021-.166.02-.167.019-.169.018-.169.017-.171.016-.173.015-.173.014-.175.013-.175.012-.177.01-.178.01-.179.009-.179.007-.181.006-.182.006-.182.004-.184.003-.184.001-.185.001-.185-.001-.184-.001-.184-.003-.182-.004-.182-.006-.181-.006-.179-.007-.179-.009-.178-.01-.176-.01-.176-.012-.175-.013-.173-.014-.172-.015-.171-.016-.17-.017-.169-.018-.167-.019-.166-.02-.165-.021-.163-.023-.162-.023-.161-.024-.159-.024-.157-.026-.156-.027-.155-.028-.153-.028-.151-.03-.15-.03-.148-.032-.146-.032-.145-.033-.143-.034-.141-.034-.14-.036-.137-.036-.136-.037-.134-.038-.132-.039-.13-.039-.128-.041-.126-.041-.124-.041-.122-.043-.12-.043-.117-.044-.116-.044-.113-.046-.112-.046-.109-.046-.106-.048-.105-.048-.102-.048-.1-.05-.097-.049-.095-.051-.093-.051-.09-.052-.087-.052-.085-.053-.083-.053-.08-.054-.077-.054v4.153zm8.74-8.179l-.257.004-.254.005-.25.008-.247.011-.244.012-.241.014-.237.016-.233.018-.231.021-.226.022-.224.023-.22.026-.216.027-.212.028-.21.031-.205.032-.202.033-.198.034-.194.036-.191.038-.187.038-.183.04-.179.041-.175.042-.172.043-.168.043-.163.045-.16.046-.155.046-.152.048-.148.048-.143.048-.139.049-.136.05-.131.05-.126.051-.123.051-.118.051-.114.052-.11.052-.106.052-.101.052-.096.052-.092.052-.088.052-.083.052-.079.052-.074.051-.07.052-.065.051-.06.05-.056.05-.051.05-.023.025-.023.024-.021.024-.02.025-.019.024-.018.024-.017.023-.015.024-.014.023-.013.023-.012.023-.01.023-.01.022-.008.022-.006.023-.006.021-.004.022-.004.021-.001.021-.001.021.001.021.001.021.004.021.004.022.006.021.006.023.008.022.01.022.01.023.012.023.013.023.014.023.015.024.017.023.018.024.019.024.02.025.021.024.023.024.023.025.051.05.056.05.06.05.065.051.07.052.074.051.079.052.083.052.088.052.092.052.096.052.101.052.106.052.11.052.114.052.118.051.123.051.126.051.131.05.136.05.139.049.143.048.148.048.152.048.155.046.16.046.163.045.168.043.172.043.175.042.179.041.183.04.187.038.191.038.194.036.198.034.202.033.205.032.21.031.212.028.216.027.22.026.224.023.226.022.231.021.233.018.237.016.241.014.244.012.247.011.25.008.254.005.257.004.26.001.26-.001.257-.004.254-.005.25-.008.247-.011.244-.012.241-.014.237-.016.233-.018.231-.021.226-.022.224-.023.22-.026.216-.027.212-.028.21-.031.205-.032.202-.033.198-.034.194-.036.191-.038.187-.038.183-.04.179-.041.175-.042.172-.043.168-.043.163-.045.16-.046.155-.046.152-.048.148-.048.143-.048.139-.049.136-.05.131-.05.126-.051.123-.051.118-.051.114-.052.11-.052.106-.052.101-.052.096-.052.092-.052.088-.052.083-.052.079-.052.074-.051.07-.052.065-.051.06-.05.056-.05.051-.05.023-.025.023-.024.021-.024.02-.025.019-.024.018-.024.017-.023.015-.024.014-.023.013-.023.012-.023.01-.023.01-.022.008-.022.006-.023.006-.021.004-.022.004-.021.001-.021.001-.021-.001-.021-.001-.021-.004-.021-.004-.022-.006-.021-.006-.023-.008-.022-.01-.022-.01-.023-.012-.023-.013-.023-.014-.023-.015-.024-.017-.023-.018-.024-.019-.024-.02-.025-.021-.024-.023-.024-.023-.025-.051-.05-.056-.05-.06-.05-.065-.051-.07-.052-.074-.051-.079-.052-.083-.052-.088-.052-.092-.052-.096-.052-.101-.052-.106-.052-.11-.052-.114-.052-.118-.051-.123-.051-.126-.051-.131-.05-.136-.05-.139-.049-.143-.048-.148-.048-.152-.048-.155-.046-.16-.046-.163-.045-.168-.043-.172-.043-.175-.042-.179-.041-.183-.04-.187-.038-.191-.038-.194-.036-.198-.034-.202-.033-.205-.032-.21-.031-.212-.028-.216-.027-.22-.026-.224-.023-.226-.022-.231-.021-.233-.018-.237-.016-.241-.014-.244-.012-.247-.011-.25-.008-.254-.005-.257-.004-.26-.001-.26.001z"/></symbol></defs><defs><symbol id="my-svg-clock" width="24" height="24"><path transform="scale(.5)" d="M12 2c5.514 0 10 4.486 10 10s-4.486 10-10 10-10-4.486-10-10 4.486-10 10-10zm0-2c-6.627 0-12 5.373-12 12s5.373 12 12 12 12-5.373 12-12-5.373-12-12-12zm5.848 12.459c.202.038.202.333.001.372-1.907.361-6.045 1.111-6.547 1.111-.719 0-1.301-.582-1.301-1.301 0-.512.77-5.447 1.125-7.445.034-.192.312-.181.343.014l.985 6.238 5.394 1.011z"/></symbol></defs><defs><marker id="my-svg-arrowhead" refX="7.9" refY="5" markerUnits="userSpaceOnUse" markerWidth="12" markerHeight="12" orient="auto-start-reverse"><path d="M -1 0 L 10 5 L 0 10 z"/></marker></defs><defs><marker id="my-svg-crosshead" markerWidth="15" markerHeight="8" orient="auto" refX="4" refY="4.5"><path fill="none" stroke="#000000" stroke-width="1pt" d="M 1,2 L 6,7 M 6,2 L 1,7" style="stroke-dasharray: 0, 0;"/></marker></defs><defs><marker id="my-svg-filled-head" refX="15.5" refY="7" markerWidth="20" markerHeight="28" orient="auto"><path d="M 18,7 L9,13 L14,7 L9,1 Z"/></marker></defs><defs><marker id="my-svg-sequencenumber" refX="15" refY="15" markerWidth="60" markerHeight="40" orient="auto"><circle cx="15" cy="15" r="6"/></marker></defs><defs><marker id="my-svg-solidTopArrowHead" refX="7.9" refY="7.25" markerUnits="userSpaceOnUse" markerWidth="12" markerHeight="12" orient="auto-start-reverse"><path d="M 0 0 L 10 8 L 0 8 z"/></marker></defs><defs><marker id="my-svg-solidBottomArrowHead" refX="7.9" refY="0.75" markerUnits="userSpaceOnUse" markerWidth="12" markerHeight="12" orient="auto-start-reverse"><path d="M 0 0 L 10 0 L 0 8 z"/></marker></defs><defs><marker id="my-svg-stickTopArrowHead" refX="7.5" refY="7" markerUnits="userSpaceOnUse" markerWidth="12" markerHeight="12" orient="auto-start-reverse"><path d="M 0 0 L 7 7" stroke="black" stroke-width="1.5" fill="none"/></marker></defs><defs><marker id="my-svg-stickBottomArrowHead" refX="7.5" refY="0" markerUnits="userSpaceOnUse" markerWidth="12" markerHeight="12" orient="auto-start-reverse"><path d="M 0 7 L 7 0" stroke="black" stroke-width="1.5" fill="none"/></marker></defs><g data-et="control-structure" data-id="i26"><line x1="64" y1="972" x2="1957" y2="972" class="loopLine"/><line x1="1957" y1="972" x2="1957" y2="1326" class="loopLine"/><line x1="64" y1="1326" x2="1957" y2="1326" class="loopLine"/><line x1="64" y1="972" x2="64" y2="1326" class="loopLine"/><line x1="64" y1="1066" x2="1957" y2="1066" class="loopLine" style="stroke-dasharray: 3, 3;"/><polygon points="64,972 114,972 114,985 105.6,992 64,992" class="labelBox"/><text x="89" y="985" text-anchor="middle" dominant-baseline="middle" alignment-baseline="middle" class="labelText" style="font-size: 16px; font-weight: 400;">alt</text><text x="1035.5" y="990" text-anchor="middle" class="loopText" style="font-size: 16px; font-weight: 400;"><tspan x="1035.5">[patient sans consentement]</tspan></text><text x="1010.5" y="1084" text-anchor="middle" class="loopText" style="font-size: 16px; font-weight: 400;">[consentement donné]</text></g><g class="actor-man actor-top" name="M" data-et="participant" data-type="actor" data-id="M" style="stroke: rgb(15, 122, 95);"><line id="actor-man-torso0" x1="75" y1="25" x2="75" y2="45"/><line id="actor-man-arms0" x1="57" y1="33" x2="93" y2="33"/><line x1="57" y1="60" x2="75" y2="45"/><line x1="75" y1="45" x2="91" y2="60"/><circle cx="75" cy="10" r="15" width="150" height="65"/><text x="75" y="67.5" dominant-baseline="central" alignment-baseline="central" class="actor actor-man" style="text-anchor: middle; font-size: 16px; font-weight: 400;"><tspan x="75" dy="0">Médecin</tspan></text></g><g class="actor-man actor-top" name="P" data-et="participant" data-type="actor" data-id="P" style="stroke: rgb(15, 122, 95);"><line id="actor-man-torso1" x1="275" y1="25" x2="275" y2="45"/><line id="actor-man-arms1" x1="257" y1="33" x2="293" y2="33"/><line x1="257" y1="60" x2="275" y2="45"/><line x1="275" y1="45" x2="291" y2="60"/><circle cx="275" cy="10" r="15" width="150" height="65"/><text x="275" y="67.5" dominant-baseline="central" alignment-baseline="central" class="actor actor-man" style="text-anchor: middle; font-size: 16px; font-weight: 400;"><tspan x="275" dy="0">Patient</tspan></text></g><text x="342" y="80" text-anchor="middle" dominant-baseline="middle" alignment-baseline="middle" class="messageText" dy="1em" style="font-size: 16px; font-weight: 400;">« Proposer une téléconsultation »</text><text x="342" y="97" text-anchor="middle" dominant-baseline="middle" alignment-baseline="middle" class="messageText" dy="1em" style="font-size: 16px; font-weight: 400;">sur un rendez-vous CONFIRME</text><line x1="82" y1="126" x2="608" y2="126" class="messageLine0" data-et="message" data-id="i1" data-from="M" data-to="APP" stroke-width="2" stroke="none" marker-end="url(#my-svg-arrowhead)" style="fill: none;"/><line x1="75" y1="126" x2="75" y2="126" stroke-width="0" marker-start="url(#my-svg-sequencenumber)"/><text x="75" y="130" font-family="sans-serif" font-size="12px" text-anchor="middle" class="sequenceNumber">1</text><text x="844" y="141" text-anchor="middle" dominant-baseline="middle" alignment-baseline="middle" class="messageText" dy="1em" style="font-size: 16px; font-weight: 400;">POST /api/medecin/teleconsultations</text><text x="844" y="158" text-anchor="middle" dominant-baseline="middle" alignment-baseline="middle" class="messageText" dy="1em" style="font-size: 16px; font-weight: 400;">{ rendezVousId } (JWT MEDECIN)</text><line x1="619" y1="187" x2="1074" y2="187" class="messageLine0" data-et="message" data-id="i2" data-from="APP" data-to="API" stroke-width="2" stroke="none" marker-end="url(#my-svg-arrowhead)" style="fill: none;"/><line x1="612" y1="187" x2="612" y2="187" stroke-width="0" marker-start="url(#my-svg-sequencenumber)"/><text x="612" y="191" font-family="sans-serif" font-size="12px" text-anchor="middle" class="sequenceNumber">2</text><text x="1299" y="202" text-anchor="middle" dominant-baseline="middle" alignment-baseline="middle" class="messageText" dy="1em" style="font-size: 16px; font-weight: 400;">parId(rendezVousId)</text><line x1="1085" y1="231" x2="1519" y2="231" class="messageLine0" data-et="message" data-id="i3" data-from="API" data-to="DB" stroke-width="2" stroke="none" marker-end="url(#my-svg-arrowhead)" style="fill: none;"/><line x1="1078" y1="231" x2="1078" y2="231" stroke-width="0" marker-start="url(#my-svg-sequencenumber)"/><text x="1078" y="235" font-family="sans-serif" font-size="12px" text-anchor="middle" class="sequenceNumber">3</text><text x="1302" y="246" text-anchor="middle" dominant-baseline="middle" alignment-baseline="middle" class="messageText" dy="1em" style="font-size: 16px; font-weight: 400;">RendezVous : 404 absent, 403 autre médecin,</text><text x="1302" y="263" text-anchor="middle" dominant-baseline="middle" alignment-baseline="middle" class="messageText" dy="1em" style="font-size: 16px; font-weight: 400;">409 non confirmé ou session déjà planifiée</text><line x1="1528" y1="292" x2="1082" y2="292" class="messageLine1" data-et="message" data-id="i4" data-from="DB" data-to="API" stroke-width="2" stroke="none" marker-end="url(#my-svg-arrowhead)" style="stroke-dasharray: 3, 3; fill: none;"/><line x1="1523" y1="292" x2="1523" y2="292" stroke-width="0" marker-start="url(#my-svg-sequencenumber)"/><text x="1523" y="296" font-family="sans-serif" font-size="12px" text-anchor="middle" class="sequenceNumber">4</text><text x="1079" y="307" text-anchor="middle" dominant-baseline="middle" alignment-baseline="middle" class="messageText" dy="1em" style="font-size: 16px; font-weight: 400;">GenerateurSalle : tabibi- + 32 hexadécimaux</text><text x="1079" y="324" text-anchor="middle" dominant-baseline="middle" alignment-baseline="middle" class="messageText" dy="1em" style="font-size: 16px; font-weight: 400;">(SecureRandom, non devinable)</text><path d="M 1079,353 C 1139,343 1139,383 1079,373" class="messageLine0" data-et="message" data-id="i5" data-from="API" data-to="API" stroke-width="2" stroke="none" marker-end="url(#my-svg-arrowhead)" x1="1085" style="fill: none;"/><line x1="1078" y1="353" x2="1078" y2="353" stroke-width="0" marker-start="url(#my-svg-sequencenumber)"/><text x="1078" y="357" font-family="sans-serif" font-size="12px" text-anchor="middle" class="sequenceNumber">5</text><text x="1299" y="398" text-anchor="middle" dominant-baseline="middle" alignment-baseline="middle" class="messageText" dy="1em" style="font-size: 16px; font-weight: 400;">enregistrer(Teleconsultation PLANIFIEE)</text><line x1="1085" y1="427" x2="1519" y2="427" class="messageLine0" data-et="message" data-id="i6" data-from="API" data-to="DB" stroke-width="2" stroke="none" marker-end="url(#my-svg-arrowhead)" style="fill: none;"/><line x1="1078" y1="427" x2="1078" y2="427" stroke-width="0" marker-start="url(#my-svg-sequencenumber)"/><text x="1078" y="431" font-family="sans-serif" font-size="12px" text-anchor="middle" class="sequenceNumber">6</text><text x="1411" y="442" text-anchor="middle" dominant-baseline="middle" alignment-baseline="middle" class="messageText" dy="1em" style="font-size: 16px; font-weight: 400;">notifier(patient, « Teleconsultation proposee »)</text><line x1="1085" y1="471" x2="1742" y2="471" class="messageLine0" data-et="message" data-id="i7" data-from="API" data-to="N" stroke-width="2" stroke="none" marker-end="url(#my-svg-arrowhead)" style="fill: none;"/><line x1="1078" y1="471" x2="1078" y2="471" stroke-width="0" marker-start="url(#my-svg-sequencenumber)"/><text x="1078" y="475" font-family="sans-serif" font-size="12px" text-anchor="middle" class="sequenceNumber">7</text><text x="847" y="486" text-anchor="middle" dominant-baseline="middle" alignment-baseline="middle" class="messageText" dy="1em" style="font-size: 16px; font-weight: 400;">201 : lienSalle visible pour le médecin</text><line x1="1083" y1="515" x2="616" y2="515" class="messageLine1" data-et="message" data-id="i8" data-from="API" data-to="APP" stroke-width="2" stroke="none" marker-end="url(#my-svg-arrowhead)" style="stroke-dasharray: 3, 3; fill: none;"/><line x1="1078" y1="515" x2="1078" y2="515" stroke-width="0" marker-start="url(#my-svg-sequencenumber)"/><text x="1078" y="519" font-family="sans-serif" font-size="12px" text-anchor="middle" class="sequenceNumber">8</text><text x="442" y="530" text-anchor="middle" dominant-baseline="middle" alignment-baseline="middle" class="messageText" dy="1em" style="font-size: 16px; font-weight: 400;">Ouvre « Mes téléconsultations »</text><line x1="282" y1="559" x2="608" y2="559" class="messageLine0" data-et="message" data-id="i9" data-from="P" data-to="APP" stroke-width="2" stroke="none" marker-end="url(#my-svg-arrowhead)" style="fill: none;"/><line x1="275" y1="559" x2="275" y2="559" stroke-width="0" marker-start="url(#my-svg-sequencenumber)"/><text x="275" y="563" font-family="sans-serif" font-size="12px" text-anchor="middle" class="sequenceNumber">9</text><text x="844" y="574" text-anchor="middle" dominant-baseline="middle" alignment-baseline="middle" class="messageText" dy="1em" style="font-size: 16px; font-weight: 400;">GET /api/teleconsultations/mes (JWT PATIENT)</text><line x1="619" y1="603" x2="1074" y2="603" class="messageLine0" data-et="message" data-id="i10" data-from="APP" data-to="API" stroke-width="2" stroke="none" marker-end="url(#my-svg-arrowhead)" style="fill: none;"/><line x1="612" y1="603" x2="612" y2="603" stroke-width="0" marker-start="url(#my-svg-sequencenumber)"/><text x="612" y="607" font-family="sans-serif" font-size="12px" text-anchor="middle" class="sequenceNumber">10</text><text x="847" y="618" text-anchor="middle" dominant-baseline="middle" alignment-baseline="middle" class="messageText" dy="1em" style="font-size: 16px; font-weight: 400;">200 : lienSalle = null</text><text x="847" y="635" text-anchor="middle" dominant-baseline="middle" alignment-baseline="middle" class="messageText" dy="1em" style="font-size: 16px; font-weight: 400;">tant que le patient n'a pas consenti</text><line x1="1083" y1="664" x2="616" y2="664" class="messageLine1" data-et="message" data-id="i11" data-from="API" data-to="APP" stroke-width="2" stroke="none" marker-end="url(#my-svg-arrowhead)" style="stroke-dasharray: 3, 3; fill: none;"/><line x1="1078" y1="664" x2="1078" y2="664" stroke-width="0" marker-start="url(#my-svg-sequencenumber)"/><text x="1078" y="668" font-family="sans-serif" font-size="12px" text-anchor="middle" class="sequenceNumber">11</text><text x="442" y="679" text-anchor="middle" dominant-baseline="middle" alignment-baseline="middle" class="messageText" dy="1em" style="font-size: 16px; font-weight: 400;">« Je donne mon consentement »</text><text x="442" y="696" text-anchor="middle" dominant-baseline="middle" alignment-baseline="middle" class="messageText" dy="1em" style="font-size: 16px; font-weight: 400;">(vidéo via un tiers, aucun enregistrement)</text><line x1="282" y1="725" x2="608" y2="725" class="messageLine0" data-et="message" data-id="i12" data-from="P" data-to="APP" stroke-width="2" stroke="none" marker-end="url(#my-svg-arrowhead)" style="fill: none;"/><line x1="275" y1="725" x2="275" y2="725" stroke-width="0" marker-start="url(#my-svg-sequencenumber)"/><text x="275" y="729" font-family="sans-serif" font-size="12px" text-anchor="middle" class="sequenceNumber">12</text><text x="844" y="740" text-anchor="middle" dominant-baseline="middle" alignment-baseline="middle" class="messageText" dy="1em" style="font-size: 16px; font-weight: 400;">POST /api/teleconsultations/{id}/consentir</text><line x1="619" y1="769" x2="1074" y2="769" class="messageLine0" data-et="message" data-id="i13" data-from="APP" data-to="API" stroke-width="2" stroke="none" marker-end="url(#my-svg-arrowhead)" style="fill: none;"/><line x1="612" y1="769" x2="612" y2="769" stroke-width="0" marker-start="url(#my-svg-sequencenumber)"/><text x="612" y="773" font-family="sans-serif" font-size="12px" text-anchor="middle" class="sequenceNumber">13</text><text x="1299" y="784" text-anchor="middle" dominant-baseline="middle" alignment-baseline="middle" class="messageText" dy="1em" style="font-size: 16px; font-weight: 400;">enregistrer(consentementPatientLe = maintenant)</text><text x="1299" y="801" text-anchor="middle" dominant-baseline="middle" alignment-baseline="middle" class="messageText" dy="1em" style="font-size: 16px; font-weight: 400;">idempotent, 409 si terminée ou annulée</text><line x1="1085" y1="830" x2="1519" y2="830" class="messageLine0" data-et="message" data-id="i14" data-from="API" data-to="DB" stroke-width="2" stroke="none" marker-end="url(#my-svg-arrowhead)" style="fill: none;"/><line x1="1078" y1="830" x2="1078" y2="830" stroke-width="0" marker-start="url(#my-svg-sequencenumber)"/><text x="1078" y="834" font-family="sans-serif" font-size="12px" text-anchor="middle" class="sequenceNumber">14</text><text x="847" y="845" text-anchor="middle" dominant-baseline="middle" alignment-baseline="middle" class="messageText" dy="1em" style="font-size: 16px; font-weight: 400;">200 : lienSalle = base-url/salleId</text><line x1="1083" y1="874" x2="616" y2="874" class="messageLine1" data-et="message" data-id="i15" data-from="API" data-to="APP" stroke-width="2" stroke="none" marker-end="url(#my-svg-arrowhead)" style="stroke-dasharray: 3, 3; fill: none;"/><line x1="1078" y1="874" x2="1078" y2="874" stroke-width="0" marker-start="url(#my-svg-sequencenumber)"/><text x="1078" y="878" font-family="sans-serif" font-size="12px" text-anchor="middle" class="sequenceNumber">15</text><text x="342" y="889" text-anchor="middle" dominant-baseline="middle" alignment-baseline="middle" class="messageText" dy="1em" style="font-size: 16px; font-weight: 400;">« Démarrer »</text><line x1="82" y1="918" x2="608" y2="918" class="messageLine0" data-et="message" data-id="i16" data-from="M" data-to="APP" stroke-width="2" stroke="none" marker-end="url(#my-svg-arrowhead)" style="fill: none;"/><line x1="75" y1="918" x2="75" y2="918" stroke-width="0" marker-start="url(#my-svg-sequencenumber)"/><text x="75" y="922" font-family="sans-serif" font-size="12px" text-anchor="middle" class="sequenceNumber">16</text><text x="844" y="933" text-anchor="middle" dominant-baseline="middle" alignment-baseline="middle" class="messageText" dy="1em" style="font-size: 16px; font-weight: 400;">POST /api/teleconsultations/{id}/demarrer (JWT MEDECIN)</text><line x1="619" y1="962" x2="1074" y2="962" class="messageLine0" data-et="message" data-id="i17" data-from="APP" data-to="API" stroke-width="2" stroke="none" marker-end="url(#my-svg-arrowhead)" style="fill: none;"/><line x1="612" y1="962" x2="612" y2="962" stroke-width="0" marker-start="url(#my-svg-sequencenumber)"/><text x="612" y="966" font-family="sans-serif" font-size="12px" text-anchor="middle" class="sequenceNumber">17</text><text x="847" y="1022" text-anchor="middle" dominant-baseline="middle" alignment-baseline="middle" class="messageText" dy="1em" style="font-size: 16px; font-weight: 400;">409 { erreur : le patient n'a pas encore consenti }</text><line x1="1083" y1="1051" x2="616" y2="1051" class="messageLine1" data-et="message" data-id="i19" data-from="API" data-to="APP" stroke-width="2" stroke="none" marker-end="url(#my-svg-arrowhead)" style="stroke-dasharray: 3, 3; fill: none;"/><line x1="1078" y1="1051" x2="1078" y2="1051" stroke-width="0" marker-start="url(#my-svg-sequencenumber)"/><text x="1078" y="1055" font-family="sans-serif" font-size="12px" text-anchor="middle" class="sequenceNumber">18</text><text x="1299" y="1111" text-anchor="middle" dominant-baseline="middle" alignment-baseline="middle" class="messageText" dy="1em" style="font-size: 16px; font-weight: 400;">enregistrer(EN_COURS, demarreeLe)</text><line x1="1085" y1="1140" x2="1519" y2="1140" class="messageLine0" data-et="message" data-id="i21" data-from="API" data-to="DB" stroke-width="2" stroke="none" marker-end="url(#my-svg-arrowhead)" style="fill: none;"/><line x1="1078" y1="1140" x2="1078" y2="1140" stroke-width="0" marker-start="url(#my-svg-sequencenumber)"/><text x="1078" y="1144" font-family="sans-serif" font-size="12px" text-anchor="middle" class="sequenceNumber">19</text><text x="1411" y="1155" text-anchor="middle" dominant-baseline="middle" alignment-baseline="middle" class="messageText" dy="1em" style="font-size: 16px; font-weight: 400;">notifier(patient, « Teleconsultation demarree »)</text><line x1="1085" y1="1184" x2="1742" y2="1184" class="messageLine0" data-et="message" data-id="i22" data-from="API" data-to="N" stroke-width="2" stroke="none" marker-end="url(#my-svg-arrowhead)" style="fill: none;"/><line x1="1078" y1="1184" x2="1078" y2="1184" stroke-width="0" marker-start="url(#my-svg-sequencenumber)"/><text x="1078" y="1188" font-family="sans-serif" font-size="12px" text-anchor="middle" class="sequenceNumber">20</text><text x="847" y="1199" text-anchor="middle" dominant-baseline="middle" alignment-baseline="middle" class="messageText" dy="1em" style="font-size: 16px; font-weight: 400;">200</text><line x1="1083" y1="1228" x2="616" y2="1228" class="messageLine1" data-et="message" data-id="i23" data-from="API" data-to="APP" stroke-width="2" stroke="none" marker-end="url(#my-svg-arrowhead)" style="stroke-dasharray: 3, 3; fill: none;"/><line x1="1078" y1="1228" x2="1078" y2="1228" stroke-width="0" marker-start="url(#my-svg-sequencenumber)"/><text x="1078" y="1232" font-family="sans-serif" font-size="12px" text-anchor="middle" class="sequenceNumber">21</text><text x="1009" y="1243" text-anchor="middle" dominant-baseline="middle" alignment-baseline="middle" class="messageText" dy="1em" style="font-size: 16px; font-weight: 400;">Ouvre la salle (nouvel onglet)</text><line x1="82" y1="1272" x2="1942" y2="1272" class="messageLine0" data-et="message" data-id="i24" data-from="M" data-to="J" stroke-width="2" stroke="none" marker-end="url(#my-svg-arrowhead)" style="fill: none;"/><line x1="75" y1="1272" x2="75" y2="1272" stroke-width="0" marker-start="url(#my-svg-sequencenumber)"/><text x="75" y="1276" font-family="sans-serif" font-size="12px" text-anchor="middle" class="sequenceNumber">22</text><text x="1109" y="1287" text-anchor="middle" dominant-baseline="middle" alignment-baseline="middle" class="messageText" dy="1em" style="font-size: 16px; font-weight: 400;">Rejoint la salle (navigateur externe sur mobile)</text><line x1="282" y1="1316" x2="1942" y2="1316" class="messageLine0" data-et="message" data-id="i25" data-from="P" data-to="J" stroke-width="2" stroke="none" marker-end="url(#my-svg-arrowhead)" style="fill: none;"/><line x1="275" y1="1316" x2="275" y2="1316" stroke-width="0" marker-start="url(#my-svg-sequencenumber)"/><text x="275" y="1320" font-family="sans-serif" font-size="12px" text-anchor="middle" class="sequenceNumber">23</text><text x="342" y="1341" text-anchor="middle" dominant-baseline="middle" alignment-baseline="middle" class="messageText" dy="1em" style="font-size: 16px; font-weight: 400;">« Terminer »</text><line x1="82" y1="1370" x2="608" y2="1370" class="messageLine0" data-et="message" data-id="i27" data-from="M" data-to="APP" stroke-width="2" stroke="none" marker-end="url(#my-svg-arrowhead)" style="fill: none;"/><line x1="75" y1="1370" x2="75" y2="1370" stroke-width="0" marker-start="url(#my-svg-sequencenumber)"/><text x="75" y="1374" font-family="sans-serif" font-size="12px" text-anchor="middle" class="sequenceNumber">24</text><text x="844" y="1385" text-anchor="middle" dominant-baseline="middle" alignment-baseline="middle" class="messageText" dy="1em" style="font-size: 16px; font-weight: 400;">POST /api/teleconsultations/{id}/terminer</text><line x1="619" y1="1414" x2="1074" y2="1414" class="messageLine0" data-et="message" data-id="i28" data-from="APP" data-to="API" stroke-width="2" stroke="none" marker-end="url(#my-svg-arrowhead)" style="fill: none;"/><line x1="612" y1="1414" x2="612" y2="1414" stroke-width="0" marker-start="url(#my-svg-sequencenumber)"/><text x="612" y="1418" font-family="sans-serif" font-size="12px" text-anchor="middle" class="sequenceNumber">25</text><text x="1299" y="1429" text-anchor="middle" dominant-baseline="middle" alignment-baseline="middle" class="messageText" dy="1em" style="font-size: 16px; font-weight: 400;">enregistrer(TERMINEE, termineeLe) : exige EN_COURS</text><line x1="1085" y1="1458" x2="1519" y2="1458" class="messageLine0" data-et="message" data-id="i29" data-from="API" data-to="DB" stroke-width="2" stroke="none" marker-end="url(#my-svg-arrowhead)" style="fill: none;"/><line x1="1078" y1="1458" x2="1078" y2="1458" stroke-width="0" marker-start="url(#my-svg-sequencenumber)"/><text x="1078" y="1462" font-family="sans-serif" font-size="12px" text-anchor="middle" class="sequenceNumber">26</text><text x="847" y="1473" text-anchor="middle" dominant-baseline="middle" alignment-baseline="middle" class="messageText" dy="1em" style="font-size: 16px; font-weight: 400;">200</text><line x1="1083" y1="1502" x2="616" y2="1502" class="messageLine1" data-et="message" data-id="i30" data-from="API" data-to="APP" stroke-width="2" stroke="none" marker-end="url(#my-svg-arrowhead)" style="stroke-dasharray: 3, 3; fill: none;"/><line x1="1078" y1="1502" x2="1078" y2="1502" stroke-width="0" marker-start="url(#my-svg-sequencenumber)"/><text x="1078" y="1506" font-family="sans-serif" font-size="12px" text-anchor="middle" class="sequenceNumber">27</text><g class="actor-man actor-bottom" name="M" style="stroke: rgb(15, 122, 95);"><line id="actor-man-torso6" x1="75" y1="1547" x2="75" y2="1567"/><line id="actor-man-arms6" x1="57" y1="1555" x2="93" y2="1555"/><line x1="57" y1="1582" x2="75" y2="1567"/><line x1="75" y1="1567" x2="91" y2="1582"/><circle cx="75" cy="1532" r="15" width="150" height="65"/><text x="75" y="1589.5" dominant-baseline="central" alignment-baseline="central" class="actor actor-man" style="text-anchor: middle; font-size: 16px; font-weight: 400;"><tspan x="75" dy="0">Médecin</tspan></text></g><g class="actor-man actor-bottom" name="P" style="stroke: rgb(15, 122, 95);"><line id="actor-man-torso6" x1="275" y1="1547" x2="275" y2="1567"/><line id="actor-man-arms6" x1="257" y1="1555" x2="293" y2="1555"/><line x1="257" y1="1582" x2="275" y2="1567"/><line x1="275" y1="1567" x2="291" y2="1582"/><circle cx="275" cy="1532" r="15" width="150" height="65"/><text x="275" y="1589.5" dominant-baseline="central" alignment-baseline="central" class="actor actor-man" style="text-anchor: middle; font-size: 16px; font-weight: 400;"><tspan x="275" dy="0">Patient</tspan></text></g></svg>